<?xml version="1.0" standalone="no"?>
<!DOCTYPE svg PUBLIC "-//W3C//DTD SVG 20010904//EN"
 "http://www.w3.org/TR/2001/REC-SVG-20010904/DTD/svg10.dtd">
<svg version="1.0" xmlns="http://www.w3.org/2000/svg"
 width="1188.000000pt" height="1191.000000pt" viewBox="0 0 1188.000000 1191.000000"
 preserveAspectRatio="xMidYMid meet">

<g transform="translate(0.000000,1191.000000) scale(0.100000,-0.100000)"
fill="#000000" stroke="none">
<path d="M9974 3016 c-43 -19 -64 -53 -64 -104 0 -35 6 -49 29 -73 25 -25 37
-29 84 -29 45 0 61 5 86 26 59 49 46 145 -24 178 -40 19 -70 20 -111 2z"/>
<path d="M2690 2821 l0 -128 -47 23 c-108 55 -224 6 -284 -120 -25 -52 -29
-73 -29 -147 0 -50 6 -104 15 -130 33 -95 114 -159 205 -159 45 0 121 28 134
49 12 18 23 13 30 -14 6 -24 10 -25 81 -25 l75 0 0 390 0 390 -90 0 -90 0 0
-129z m-43 -242 c15 -5 31 -16 35 -22 4 -7 8 -53 8 -102 0 -105 -12 -131 -65
-141 -72 -13 -111 48 -103 159 4 52 9 64 36 88 35 32 47 34 89 18z"/>
<path d="M9383 2934 c-3 -8 -3 -67 -1 -130 3 -63 4 -114 1 -114 -2 0 -17 9
-32 21 -36 27 -107 35 -156 19 -54 -18 -119 -81 -146 -143 -32 -74 -32 -209 1
-284 56 -131 200 -182 310 -109 48 32 48 32 52 4 3 -21 9 -23 81 -26 l77 -3 0
391 0 390 -90 0 c-73 0 -92 -3 -97 -16z m-16 -365 c9 -8 13 -41 13 -119 0
-119 -4 -127 -62 -137 -27 -4 -41 0 -63 20 -26 22 -30 32 -33 96 -5 83 9 125
47 146 27 16 75 13 98 -6z"/>
<path d="M1250 2895 c-110 -31 -202 -121 -236 -231 -20 -66 -20 -211 1 -273
52 -156 176 -239 343 -229 83 5 144 29 194 75 l27 26 -51 58 -51 58 -33 -25
c-64 -50 -149 -41 -203 21 -38 44 -54 103 -49 180 7 116 67 185 162 185 33 0
62 -7 83 -20 l32 -19 51 57 50 57 -23 19 c-73 62 -199 88 -297 61z"/>
<path d="M7230 2897 c-90 -25 -153 -81 -179 -156 -14 -42 -14 -65 0 -114 18
-67 68 -110 187 -162 131 -57 152 -70 152 -95 0 -58 -109 -64 -210 -12 l-59
30 -51 -61 c-27 -34 -50 -64 -50 -67 0 -3 19 -18 43 -33 115 -75 294 -89 398
-30 74 42 111 96 117 172 9 123 -31 170 -204 241 -130 53 -153 72 -128 108 13
18 25 22 72 22 35 0 74 -8 101 -20 24 -11 47 -20 51 -20 4 0 27 26 50 57 l43
56 -29 24 c-70 56 -216 85 -304 60z"/>
<path d="M3666 2743 c24 -81 72 -244 106 -360 l62 -213 116 0 115 0 73 249
c41 137 88 299 107 360 l33 111 -97 0 -98 0 -58 -252 c-32 -139 -61 -262 -65
-273 -7 -19 -8 -18 -14 5 -3 14 -32 135 -64 270 l-58 245 -101 3 -101 3 44
-148z"/>
<path d="M7847 2868 c-3 -13 -9 -48 -12 -79 -7 -53 -9 -57 -37 -63 -17 -3 -50
-6 -74 -6 l-44 0 0 -70 0 -70 69 0 69 0 4 -137 c3 -122 6 -143 26 -178 41 -72
110 -105 219 -105 62 0 162 16 175 29 4 3 0 34 -9 69 -15 62 -16 63 -45 57
-16 -4 -53 -7 -81 -7 -43 1 -56 5 -74 27 -21 24 -23 36 -23 136 l0 109 110 0
110 0 0 75 0 75 -110 0 -110 0 0 80 0 80 -79 0 c-74 0 -79 -2 -84 -22z"/>
<path d="M1846 2724 c-64 -20 -156 -110 -174 -170 -17 -58 -15 -162 4 -217 32
-95 132 -167 245 -175 85 -6 152 16 212 69 68 60 92 116 92 219 0 75 -4 91
-30 139 -68 124 -208 178 -349 135z m149 -156 c49 -44 52 -183 5 -233 -25 -27
-67 -33 -102 -14 -62 33 -64 222 -1 258 30 17 70 13 98 -11z"/>
<path d="M3205 2727 c-178 -59 -257 -263 -164 -425 57 -100 162 -149 300 -139
74 5 189 44 189 63 0 6 -46 90 -55 102 -2 2 -26 -4 -54 -14 -91 -29 -177 -8
-219 54 l-14 22 180 0 181 0 6 44 c16 106 -42 231 -127 274 -58 30 -163 38
-223 19z m163 -163 c13 -14 21 -31 19 -38 -2 -7 -38 -12 -95 -14 -84 -3 -92
-1 -92 16 0 19 33 55 60 65 30 12 85 -2 108 -29z"/>
<path d="M4545 2727 c-178 -59 -257 -263 -164 -425 57 -100 162 -149 300 -139
74 5 189 44 189 63 0 6 -46 90 -55 102 -2 2 -26 -4 -54 -14 -91 -29 -177 -8
-219 54 l-14 22 180 0 181 0 6 44 c16 106 -42 231 -127 274 -58 30 -163 38
-223 19z m163 -163 c13 -14 21 -31 19 -38 -2 -7 -38 -12 -95 -14 -84 -3 -92
-1 -92 16 0 19 33 55 60 65 30 12 85 -2 108 -29z"/>
<path d="M5400 2731 c-50 -16 -89 -41 -123 -83 l-36 -42 -7 62 -7 62 -78 0
-79 0 0 -280 0 -280 95 0 95 0 0 137 c0 128 2 139 25 180 34 57 90 86 166 85
30 0 62 -2 69 -4 9 -2 18 15 26 50 7 29 15 63 18 76 5 20 1 26 -26 35 -35 12
-100 13 -138 2z"/>
<path d="M5876 2730 c-117 -30 -182 -115 -156 -208 19 -71 70 -104 220 -142
101 -26 114 -34 99 -62 -10 -19 -18 -20 -92 -15 -54 3 -100 12 -136 28 l-54
23 -21 -27 c-12 -15 -29 -40 -39 -56 l-18 -30 49 -25 c132 -67 289 -75 398
-20 75 37 104 78 104 146 0 95 -54 139 -215 179 -101 24 -126 39 -105 63 19
24 104 20 173 -8 l58 -24 39 52 c22 29 40 55 40 58 0 3 -32 20 -71 38 -57 26
-86 33 -152 36 -45 2 -99 -1 -121 -6z"/>
<path d="M6555 2727 c-178 -59 -257 -263 -164 -425 57 -100 162 -149 300 -139
74 5 189 44 189 63 0 6 -46 90 -55 102 -2 2 -26 -4 -54 -14 -91 -29 -177 -8
-219 54 l-14 22 180 0 181 0 6 44 c16 106 -42 231 -127 274 -58 30 -163 38
-223 19z m163 -163 c13 -14 21 -31 19 -38 -2 -7 -38 -12 -95 -14 -84 -3 -92
-1 -92 16 0 19 33 55 60 65 30 12 85 -2 108 -29z"/>
<path d="M10545 2720 c-145 -56 -216 -208 -171 -364 23 -78 98 -155 175 -181
106 -35 228 -7 304 69 52 51 71 100 75 192 5 104 -19 165 -90 229 -82 73 -192
94 -293 55z m140 -140 c69 -26 74 -223 7 -259 -35 -19 -77 -13 -101 13 -49 52
-47 190 4 233 29 25 50 28 90 13z"/>
<path d="M8372 2508 c3 -216 4 -224 28 -268 54 -97 184 -109 294 -25 29 22 34
23 40 9 3 -8 6 -24 6 -35 0 -17 8 -19 80 -19 l80 0 0 280 0 280 -95 0 -95 0 0
-184 0 -185 -26 -20 c-33 -26 -85 -27 -107 -3 -15 16 -17 46 -17 205 l0 187
-96 0 -95 0 3 -222z"/>
<path d="M9730 2655 l0 -75 105 0 105 0 0 -205 0 -205 95 0 95 0 0 280 0 280
-200 0 -200 0 0 -75z"/>
</g>
</svg>
