<svg xmlns="http://www.w3.org/2000/svg" viewBox="0 0 900 900"><svg id="visual" viewBox="0 0 900 450" width="900" height="450" xmlns="http://www.w3.org/2000/svg" xmlns:xlink="http://www.w3.org/1999/xlink" version="1.1" y="0"><rect x="0" y="0" width="900" height="450" fill="#F7F8FA"></rect><path d="M0 212L37.5 207.8C75 203.7 150 195.3 225 211.3C300 227.3 375 267.7 450 282.2C525 296.7 600 285.3 675 269.2C750 253 825 232 862.5 221.5L900 211L900 451L862.5 451C825 451 750 451 675 451C600 451 525 451 450 451C375 451 300 451 225 451C150 451 75 451 37.5 451L0 451Z" fill="#E9EDF1" stroke-linecap="round" stroke-linejoin="miter"></path></svg><svg id="visual" viewBox="0 0 900 450" width="900" height="450" xmlns="http://www.w3.org/2000/svg" xmlns:xlink="http://www.w3.org/1999/xlink" version="1.1" y="450"><rect x="0" y="0" width="900" height="450" fill="#F7F8FA"></rect><path d="M0 236L37.5 240.2C75 244.3 150 252.7 225 236.7C300 220.7 375 180.3 450 165.8C525 151.3 600 162.7 675 178.8C750 195 825 216 862.5 226.5L900 237L900 0L862.5 0C825 0 750 0 675 0C600 0 525 0 450 0C375 0 300 0 225 0C150 0 75 0 37.5 0L0 0Z" fill="#E9EDF1" stroke-linecap="round" stroke-linejoin="miter"></path></svg></svg>