<?xml version="1.0" standalone="no"?><svg xmlns="http://www.w3.org/2000/svg" viewBox="0 0 1440 320"><path fill="#f3f4f5" fill-opacity="1" d="M0,288L30,272C60,256,120,224,180,224C240,224,300,256,360,277.3C420,299,480,309,540,266.7C600,224,660,128,720,106.7C780,85,840,139,900,186.7C960,235,1020,277,1080,282.7C1140,288,1200,256,1260,213.3C1320,171,1380,117,1410,90.7L1440,64L1440,320L1410,320C1380,320,1320,320,1260,320C1200,320,1140,320,1080,320C1020,320,960,320,900,320C840,320,780,320,720,320C660,320,600,320,540,320C480,320,420,320,360,320C300,320,240,320,180,320C120,320,60,320,30,320L0,320Z"></path></svg>