<?xml version="1.0" standalone="no"?><svg xmlns="http://www.w3.org/2000/svg" viewBox="0 0 1440 320"><path fill="#f3f4f5" fill-opacity="1" d="M0,128L30,122.7C60,117,120,107,180,112C240,117,300,139,360,160C420,181,480,203,540,192C600,181,660,139,720,122.7C780,107,840,117,900,133.3C960,149,1020,171,1080,197.3C1140,224,1200,256,1260,261.3C1320,267,1380,245,1410,234.7L1440,224L1440,0L1410,0C1380,0,1320,0,1260,0C1200,0,1140,0,1080,0C1020,0,960,0,900,0C840,0,780,0,720,0C660,0,600,0,540,0C480,0,420,0,360,0C300,0,240,0,180,0C120,0,60,0,30,0L0,0Z"></path></svg>