<svg id="visual" viewBox="0 0 900 600" width="900" height="600" xmlns="http://www.w3.org/2000/svg" xmlns:xlink="http://www.w3.org/1999/xlink" version="1.1"><rect x="0" y="0" width="900" height="600" fill="#FFFFFF"></rect><path d="M139 0L126.2 20C113.3 40 87.7 80 83.7 120C79.7 160 97.3 200 105.3 240C113.3 280 111.7 320 100.7 360C89.7 400 69.3 440 66.2 480C63 520 77 560 84 580L91 600L0 600L0 580C0 560 0 520 0 480C0 440 0 400 0 360C0 320 0 280 0 240C0 200 0 160 0 120C0 80 0 40 0 20L0 0Z" fill="#0066FF" stroke-linecap="round" stroke-linejoin="miter"></path></svg>