<?xml version="1.0" standalone="no"?><svg xmlns="http://www.w3.org/2000/svg" viewBox="0 0 1440 320"><path fill="#f3f4f5" fill-opacity="1" d="M0,96L30,112C60,128,120,160,180,181.3C240,203,300,213,360,213.3C420,213,480,203,540,181.3C600,160,660,128,720,106.7C780,85,840,75,900,64C960,53,1020,43,1080,53.3C1140,64,1200,96,1260,128C1320,160,1380,192,1410,208L1440,224L1440,320L1410,320C1380,320,1320,320,1260,320C1200,320,1140,320,1080,320C1020,320,960,320,900,320C840,320,780,320,720,320C660,320,600,320,540,320C480,320,420,320,360,320C300,320,240,320,180,320C120,320,60,320,30,320L0,320Z"></path></svg>